<svg xmlns="http://www.w3.org/2000/svg" width="512" height="512" viewBox="0 0 512 512">
<title>Body Plate — Cold Storage emblem</title>
<defs>
<radialGradient id="ink" cx="34%" cy="26%" r="85%"><stop offset="0" stop-color="#1d262c"/><stop offset=".55" stop-color="#0d1215"/><stop offset="1" stop-color="#050607"/></radialGradient>
<linearGradient id="bone" x1="0" y1="0" x2="0" y2="1"><stop offset="0" stop-color="#f1e9d6"/><stop offset="1" stop-color="#b9ae95"/></linearGradient>
<linearGradient id="key" x1="0" y1="0" x2="1" y2="1"><stop offset="0" stop-color="#fff" stop-opacity=".16"/><stop offset=".5" stop-color="#fff" stop-opacity="0"/></linearGradient>
<pattern id="blinds" width="512" height="38" patternUnits="userSpaceOnUse" patternTransform="rotate(-28 256 256)"><rect width="512" height="15" fill="#fff" opacity=".06"/></pattern>
<pattern id="shade" width="512" height="38" patternUnits="userSpaceOnUse" patternTransform="rotate(-28 256 256)"><rect y="15" width="512" height="23" fill="#000" opacity=".22"/></pattern>
<filter id="grain" x="0" y="0" width="100%" height="100%"><feTurbulence type="fractalNoise" baseFrequency=".85" numOctaves="2" seed="71" result="n"/><feColorMatrix in="n" type="matrix" values="0 0 0 0 1  0 0 0 0 1  0 0 0 0 1  0 0 0 .09 0"/></filter>
<filter id="glow" x="-20%" y="-20%" width="140%" height="140%"><feGaussianBlur stdDeviation="6" result="b"/><feMerge><feMergeNode in="b"/><feMergeNode in="SourceGraphic"/></feMerge></filter>
<clipPath id="frame"><path d="M256 24 L448 74 L448 250 C448 370 360 446 256 490 C152 446 64 370 64 250 L64 74 Z"/></clipPath>
<mask id="gm" maskUnits="userSpaceOnUse" x="0" y="0" width="512" height="512"><g transform="translate(114.0,74.0) scale(1.42)"><path d="M50 44 L80 36 C88 48 112 48 120 36 L150 44 L158 120 C150 150 128 166 100 172 C72 166 50 150 42 120 Z" fill="#fff" /><path d="M70 80 C90 92 110 92 130 80 M70 110 C90 122 110 122 130 110" fill="none" stroke="#000" stroke-width="5" stroke-linecap="round" stroke-linejoin="round" opacity=".5"/><path d="M100.0 130.0 L108.7 135.0 L108.7 145.0 L100.0 150.0 L91.3 145.0 L91.3 135.0 Z" fill="#fff" /></g></mask>
</defs>
<path d="M256 24 L448 74 L448 250 C448 370 360 446 256 490 C152 446 64 370 64 250 L64 74 Z" fill="url(#ink)"/>
<g clip-path="url(#frame)">
<rect width="512" height="512" fill="url(#blinds)"/>
<rect width="512" height="512" fill="url(#key)"/>
<circle cx="256" cy="226" r="150" fill="#78ecf3" opacity=".07"/>

<g transform="translate(9,11)" opacity=".75"><g transform="translate(114.0,74.0) scale(1.42)"><path d="M50 44 L80 36 C88 48 112 48 120 36 L150 44 L158 120 C150 150 128 166 100 172 C72 166 50 150 42 120 Z" fill="#000" /><path d="M70 80 C90 92 110 92 130 80 M70 110 C90 122 110 122 130 110" fill="none" stroke="#000" stroke-width="5" stroke-linecap="round" stroke-linejoin="round" opacity=".5"/><path d="M100.0 130.0 L108.7 135.0 L108.7 145.0 L100.0 150.0 L91.3 145.0 L91.3 135.0 Z" fill="#000" /></g></g>
<g transform="translate(114.0,74.0) scale(1.42)"><path d="M50 44 L80 36 C88 48 112 48 120 36 L150 44 L158 120 C150 150 128 166 100 172 C72 166 50 150 42 120 Z" fill="url(#bone)" /><path d="M70 80 C90 92 110 92 130 80 M70 110 C90 122 110 122 130 110" fill="none" stroke="#0a0d10" stroke-width="5" stroke-linecap="round" stroke-linejoin="round" opacity=".5"/><path d="M100.0 130.0 L108.7 135.0 L108.7 145.0 L100.0 150.0 L91.3 145.0 L91.3 135.0 Z" fill="#78ecf3" /></g>
<rect width="512" height="512" fill="url(#shade)" mask="url(#gm)"/>
<rect width="512" height="512" filter="url(#grain)"/>
</g>
<path d="M256 24 L448 74 L448 250 C448 370 360 446 256 490 C152 446 64 370 64 250 L64 74 Z" fill="none" stroke="#f1e9d6" stroke-width="8"/>
<path d="M256 24 L448 74 L448 250 C448 370 360 446 256 490 C152 446 64 370 64 250 L64 74 Z" fill="none" stroke="#78ecf3" stroke-width="2.5" opacity=".85" transform="translate(256,256) scale(0.9) translate(-256,-256)"/>

<text x="256" y="84" text-anchor="middle" font-family="'Courier New',Courier,monospace" font-size="17" font-weight="700" letter-spacing="3" fill="#78ecf3" opacity=".9">APP·003</text>
<g transform="translate(256,380)">
<rect x="-130.0" y="-24" width="260" height="52" fill="#0a0d10" stroke="#f1e9d6" stroke-width="3"/>
<rect x="-124.0" y="-18" width="248" height="40" fill="none" stroke="#78ecf3" stroke-width="1.2" opacity=".7"/>
<text x="0" y="12" text-anchor="middle" font-family="Oswald,'Bebas Neue','Roboto Condensed','Arial Narrow',Impact,sans-serif" font-size="30" font-weight="700" letter-spacing="2" fill="#f1e9d6">BODY PLATE</text>
</g>
<text x="256" y="432" text-anchor="middle" font-family="'Courier New',Courier,monospace" font-size="13" letter-spacing="4" fill="#b9ae95" opacity=".85">APPAREL</text>
</svg>