<svg xmlns="http://www.w3.org/2000/svg" width="512" height="512" viewBox="0 0 512 512">
<title>Termite Grenades — Cold Storage emblem</title>
<defs>
<radialGradient id="ink" cx="34%" cy="26%" r="85%"><stop offset="0" stop-color="#1d262c"/><stop offset=".55" stop-color="#0d1215"/><stop offset="1" stop-color="#050607"/></radialGradient>
<linearGradient id="bone" x1="0" y1="0" x2="0" y2="1"><stop offset="0" stop-color="#f1e9d6"/><stop offset="1" stop-color="#b9ae95"/></linearGradient>
<linearGradient id="key" x1="0" y1="0" x2="1" y2="1"><stop offset="0" stop-color="#fff" stop-opacity=".16"/><stop offset=".5" stop-color="#fff" stop-opacity="0"/></linearGradient>
<pattern id="blinds" width="512" height="38" patternUnits="userSpaceOnUse" patternTransform="rotate(-28 256 256)"><rect width="512" height="15" fill="#fff" opacity=".06"/></pattern>
<pattern id="shade" width="512" height="38" patternUnits="userSpaceOnUse" patternTransform="rotate(-28 256 256)"><rect y="15" width="512" height="23" fill="#000" opacity=".22"/></pattern>
<filter id="grain" x="0" y="0" width="100%" height="100%"><feTurbulence type="fractalNoise" baseFrequency=".85" numOctaves="2" seed="95" result="n"/><feColorMatrix in="n" type="matrix" values="0 0 0 0 1  0 0 0 0 1  0 0 0 0 1  0 0 0 .09 0"/></filter>
<filter id="glow" x="-20%" y="-20%" width="140%" height="140%"><feGaussianBlur stdDeviation="6" result="b"/><feMerge><feMergeNode in="b"/><feMergeNode in="SourceGraphic"/></feMerge></filter>
<clipPath id="frame"><path d="M256 28 A228 228 0 1 1 255.9 28 Z"/></clipPath>
<mask id="gm" maskUnits="userSpaceOnUse" x="0" y="0" width="512" height="512"><g transform="translate(106.0,76.0) scale(1.5)"><path d="M100 56 C134 56 150 84 150 112 C150 142 128 164 100 164 C72 164 50 142 50 112 C50 84 66 56 100 56 Z" fill="#fff" /><rect x="86" y="40" width="28" height="18" rx="3" fill="#fff" /><path d="M114 46 C132 34 150 40 150 60" fill="none" stroke="#fff" stroke-width="6" stroke-linecap="round" stroke-linejoin="round" /><circle cx="150" cy="64" r="7" fill="#fff" /><path d="M54 96 L146 96 M50 122 L150 122 M54 146 L146 146 M86 58 L80 162 M114 58 L120 162" fill="none" stroke="#000" stroke-width="4" stroke-linecap="round" stroke-linejoin="round" opacity=".5"/><g transform="translate(84,92) scale(1.1)"><path d="M10 0 C22 14 26 24 20 34 C16 42 4 42 0 34 C-4 26 2 18 6 14 C6 22 10 24 12 20 C14 14 12 8 10 0 Z" fill="#fff" /></g></g></mask>
</defs>
<path d="M256 28 A228 228 0 1 1 255.9 28 Z" fill="url(#ink)"/>
<g clip-path="url(#frame)">
<rect width="512" height="512" fill="url(#blinds)"/>
<rect width="512" height="512" fill="url(#key)"/>
<circle cx="256" cy="226" r="150" fill="#ff8a3d" opacity=".07"/>

<g transform="translate(9,11)" opacity=".75"><g transform="translate(106.0,76.0) scale(1.5)"><path d="M100 56 C134 56 150 84 150 112 C150 142 128 164 100 164 C72 164 50 142 50 112 C50 84 66 56 100 56 Z" fill="#000" /><rect x="86" y="40" width="28" height="18" rx="3" fill="#000" /><path d="M114 46 C132 34 150 40 150 60" fill="none" stroke="#000" stroke-width="6" stroke-linecap="round" stroke-linejoin="round" /><circle cx="150" cy="64" r="7" fill="#000" /><path d="M54 96 L146 96 M50 122 L150 122 M54 146 L146 146 M86 58 L80 162 M114 58 L120 162" fill="none" stroke="#000" stroke-width="4" stroke-linecap="round" stroke-linejoin="round" opacity=".5"/><g transform="translate(84,92) scale(1.1)"><path d="M10 0 C22 14 26 24 20 34 C16 42 4 42 0 34 C-4 26 2 18 6 14 C6 22 10 24 12 20 C14 14 12 8 10 0 Z" fill="#000" /></g></g></g>
<g transform="translate(106.0,76.0) scale(1.5)"><path d="M100 56 C134 56 150 84 150 112 C150 142 128 164 100 164 C72 164 50 142 50 112 C50 84 66 56 100 56 Z" fill="url(#bone)" /><rect x="86" y="40" width="28" height="18" rx="3" fill="url(#bone)" /><path d="M114 46 C132 34 150 40 150 60" fill="none" stroke="url(#bone)" stroke-width="6" stroke-linecap="round" stroke-linejoin="round" /><circle cx="150" cy="64" r="7" fill="url(#bone)" /><path d="M54 96 L146 96 M50 122 L150 122 M54 146 L146 146 M86 58 L80 162 M114 58 L120 162" fill="none" stroke="#0a0d10" stroke-width="4" stroke-linecap="round" stroke-linejoin="round" opacity=".5"/><g transform="translate(84,92) scale(1.1)"><path d="M10 0 C22 14 26 24 20 34 C16 42 4 42 0 34 C-4 26 2 18 6 14 C6 22 10 24 12 20 C14 14 12 8 10 0 Z" fill="#ff8a3d" /></g></g>
<rect width="512" height="512" fill="url(#shade)" mask="url(#gm)"/>
<rect width="512" height="512" filter="url(#grain)"/>
</g>
<path d="M256 28 A228 228 0 1 1 255.9 28 Z" fill="none" stroke="#f1e9d6" stroke-width="8"/>
<path d="M256 28 A228 228 0 1 1 255.9 28 Z" fill="none" stroke="#ff8a3d" stroke-width="2.5" opacity=".85" transform="translate(256,256) scale(0.92) translate(-256,-256)"/>
<rect x="-4" y="-232" width="8" height="34" fill="#f1e9d6" transform="translate(256,256) rotate(0)"/><rect x="-4" y="-232" width="8" height="34" fill="#f1e9d6" transform="translate(256,256) rotate(90)"/><rect x="-4" y="-232" width="8" height="34" fill="#f1e9d6" transform="translate(256,256) rotate(180)"/><rect x="-4" y="-232" width="8" height="34" fill="#f1e9d6" transform="translate(256,256) rotate(270)"/>
<text x="256" y="84" text-anchor="middle" font-family="'Courier New',Courier,monospace" font-size="17" font-weight="700" letter-spacing="3" fill="#ff8a3d" opacity=".9">WPN·025</text>
<g transform="translate(256,398)">
<rect x="-150.0" y="-24" width="300" height="52" fill="#0a0d10" stroke="#f1e9d6" stroke-width="3"/>
<rect x="-144.0" y="-18" width="288" height="40" fill="none" stroke="#ff8a3d" stroke-width="1.2" opacity=".7"/>
<text x="0" y="10" text-anchor="middle" font-family="Oswald,'Bebas Neue','Roboto Condensed','Arial Narrow',Impact,sans-serif" font-size="26" font-weight="700" letter-spacing="2" fill="#f1e9d6" textLength="270" lengthAdjust="spacingAndGlyphs">TERMITE GRENADES</text>
</g>
<text x="256" y="450" text-anchor="middle" font-family="'Courier New',Courier,monospace" font-size="13" letter-spacing="4" fill="#b9ae95" opacity=".85">ARMORY</text>
</svg>