<svg xmlns="http://www.w3.org/2000/svg" width="512" height="512" viewBox="0 0 512 512">
<title>Deck — Cold Storage emblem</title>
<defs>
<radialGradient id="ink" cx="34%" cy="26%" r="85%"><stop offset="0" stop-color="#1d262c"/><stop offset=".55" stop-color="#0d1215"/><stop offset="1" stop-color="#050607"/></radialGradient>
<linearGradient id="bone" x1="0" y1="0" x2="0" y2="1"><stop offset="0" stop-color="#f1e9d6"/><stop offset="1" stop-color="#b9ae95"/></linearGradient>
<linearGradient id="key" x1="0" y1="0" x2="1" y2="1"><stop offset="0" stop-color="#fff" stop-opacity=".16"/><stop offset=".5" stop-color="#fff" stop-opacity="0"/></linearGradient>
<pattern id="blinds" width="512" height="38" patternUnits="userSpaceOnUse" patternTransform="rotate(-28 256 256)"><rect width="512" height="15" fill="#fff" opacity=".06"/></pattern>
<pattern id="shade" width="512" height="38" patternUnits="userSpaceOnUse" patternTransform="rotate(-28 256 256)"><rect y="15" width="512" height="23" fill="#000" opacity=".22"/></pattern>
<filter id="grain" x="0" y="0" width="100%" height="100%"><feTurbulence type="fractalNoise" baseFrequency=".85" numOctaves="2" seed="79" result="n"/><feColorMatrix in="n" type="matrix" values="0 0 0 0 1  0 0 0 0 1  0 0 0 0 1  0 0 0 .09 0"/></filter>
<filter id="glow" x="-20%" y="-20%" width="140%" height="140%"><feGaussianBlur stdDeviation="6" result="b"/><feMerge><feMergeNode in="b"/><feMergeNode in="SourceGraphic"/></feMerge></filter>
<clipPath id="frame"><path d="M256 22 L490 256 L256 490 L22 256 Z"/></clipPath>
<mask id="gm" maskUnits="userSpaceOnUse" x="0" y="0" width="512" height="512"><g transform="translate(124.0,96.0) scale(1.32)"><rect x="40" y="40" width="120" height="76" rx="6" fill="#fff" /><rect x="52" y="52" width="96" height="52" rx="3" fill="#000" opacity=".7"/><path d="M60 70 L80 70 M60 82 L104 82 M60 94 L92 94" fill="none" stroke="#fff" stroke-width="4" stroke-linecap="round" stroke-linejoin="round" /><path d="M30 128 L170 128 L182 164 L18 164 Z" fill="#fff" /><path d="M40 140 L160 140 M36 152 L164 152" fill="none" stroke="#000" stroke-width="3" stroke-linecap="round" stroke-linejoin="round" opacity=".55"/></g></mask>
</defs>
<path d="M256 22 L490 256 L256 490 L22 256 Z" fill="url(#ink)"/>
<g clip-path="url(#frame)">
<rect width="512" height="512" fill="url(#blinds)"/>
<rect width="512" height="512" fill="url(#key)"/>
<circle cx="256" cy="226" r="150" fill="#b9a2ff" opacity=".07"/>

<g transform="translate(9,11)" opacity=".75"><g transform="translate(124.0,96.0) scale(1.32)"><rect x="40" y="40" width="120" height="76" rx="6" fill="#000" /><rect x="52" y="52" width="96" height="52" rx="3" fill="#000" opacity=".7"/><path d="M60 70 L80 70 M60 82 L104 82 M60 94 L92 94" fill="none" stroke="#000" stroke-width="4" stroke-linecap="round" stroke-linejoin="round" /><path d="M30 128 L170 128 L182 164 L18 164 Z" fill="#000" /><path d="M40 140 L160 140 M36 152 L164 152" fill="none" stroke="#000" stroke-width="3" stroke-linecap="round" stroke-linejoin="round" opacity=".55"/></g></g>
<g transform="translate(124.0,96.0) scale(1.32)"><rect x="40" y="40" width="120" height="76" rx="6" fill="url(#bone)" /><rect x="52" y="52" width="96" height="52" rx="3" fill="#0a0d10" opacity=".7"/><path d="M60 70 L80 70 M60 82 L104 82 M60 94 L92 94" fill="none" stroke="#b9a2ff" stroke-width="4" stroke-linecap="round" stroke-linejoin="round" /><path d="M30 128 L170 128 L182 164 L18 164 Z" fill="url(#bone)" /><path d="M40 140 L160 140 M36 152 L164 152" fill="none" stroke="#0a0d10" stroke-width="3" stroke-linecap="round" stroke-linejoin="round" opacity=".55"/></g>
<rect width="512" height="512" fill="url(#shade)" mask="url(#gm)"/>
<rect width="512" height="512" filter="url(#grain)"/>
</g>
<path d="M256 22 L490 256 L256 490 L22 256 Z" fill="none" stroke="#f1e9d6" stroke-width="8"/>
<path d="M256 22 L490 256 L256 490 L22 256 Z" fill="none" stroke="#b9a2ff" stroke-width="2.5" opacity=".85" transform="translate(256,256) scale(0.86) translate(-256,-256)"/>

<text x="256" y="108" text-anchor="middle" font-family="'Courier New',Courier,monospace" font-size="17" font-weight="700" letter-spacing="3" fill="#b9a2ff" opacity=".9">SW0·01</text>
<g transform="translate(256,356)">
<rect x="-118.0" y="-24" width="236" height="52" fill="#0a0d10" stroke="#f1e9d6" stroke-width="3"/>
<rect x="-112.0" y="-18" width="224" height="40" fill="none" stroke="#b9a2ff" stroke-width="1.2" opacity=".7"/>
<text x="0" y="12" text-anchor="middle" font-family="Oswald,'Bebas Neue','Roboto Condensed','Arial Narrow',Impact,sans-serif" font-size="30" font-weight="700" letter-spacing="2" fill="#f1e9d6">DECK</text>
</g>
<text x="256" y="408" text-anchor="middle" font-family="'Courier New',Courier,monospace" font-size="13" letter-spacing="4" fill="#b9ae95" opacity=".85">DECKS</text>
</svg>