<svg xmlns="http://www.w3.org/2000/svg" width="512" height="512" viewBox="0 0 512 512">
<title>Particle Blaster — Cold Storage emblem</title>
<defs>
<radialGradient id="ink" cx="34%" cy="26%" r="85%"><stop offset="0" stop-color="#1d262c"/><stop offset=".55" stop-color="#0d1215"/><stop offset="1" stop-color="#050607"/></radialGradient>
<linearGradient id="bone" x1="0" y1="0" x2="0" y2="1"><stop offset="0" stop-color="#f1e9d6"/><stop offset="1" stop-color="#b9ae95"/></linearGradient>
<linearGradient id="key" x1="0" y1="0" x2="1" y2="1"><stop offset="0" stop-color="#fff" stop-opacity=".16"/><stop offset=".5" stop-color="#fff" stop-opacity="0"/></linearGradient>
<pattern id="blinds" width="512" height="38" patternUnits="userSpaceOnUse" patternTransform="rotate(-28 256 256)"><rect width="512" height="15" fill="#fff" opacity=".06"/></pattern>
<pattern id="shade" width="512" height="38" patternUnits="userSpaceOnUse" patternTransform="rotate(-28 256 256)"><rect y="15" width="512" height="23" fill="#000" opacity=".22"/></pattern>
<filter id="grain" x="0" y="0" width="100%" height="100%"><feTurbulence type="fractalNoise" baseFrequency=".85" numOctaves="2" seed="90" result="n"/><feColorMatrix in="n" type="matrix" values="0 0 0 0 1  0 0 0 0 1  0 0 0 0 1  0 0 0 .09 0"/></filter>
<filter id="glow" x="-20%" y="-20%" width="140%" height="140%"><feGaussianBlur stdDeviation="6" result="b"/><feMerge><feMergeNode in="b"/><feMergeNode in="SourceGraphic"/></feMerge></filter>
<clipPath id="frame"><path d="M256 28 A228 228 0 1 1 255.9 28 Z"/></clipPath>
<mask id="gm" maskUnits="userSpaceOnUse" x="0" y="0" width="512" height="512"><g transform="translate(106.0,76.0) scale(1.5)"><path d="M40 62 L140 62 L152 74 L152 96 L40 96 Z" fill="#fff" /><rect x="150" y="70" width="14" height="22" rx="4" fill="#fff" /><circle cx="172" cy="81" r="10" fill="#fff" /><path d="M58 96 L96 96 L88 152 L52 152 Z" fill="#fff" /><path d="M96 98 C102 114 116 114 118 98" fill="none" stroke="#fff" stroke-width="6" stroke-linecap="round" stroke-linejoin="round" /><rect x="70" y="54" width="6" height="8" rx="0" fill="#fff" /><rect x="84" y="54" width="6" height="8" rx="0" fill="#fff" /><rect x="98" y="54" width="6" height="8" rx="0" fill="#fff" /><rect x="48" y="72" width="90" height="4" rx="0" fill="#fff" opacity=".85"/></g></mask>
</defs>
<path d="M256 28 A228 228 0 1 1 255.9 28 Z" fill="url(#ink)"/>
<g clip-path="url(#frame)">
<rect width="512" height="512" fill="url(#blinds)"/>
<rect width="512" height="512" fill="url(#key)"/>
<circle cx="256" cy="226" r="150" fill="#ff8a3d" opacity=".07"/>

<g transform="translate(9,11)" opacity=".75"><g transform="translate(106.0,76.0) scale(1.5)"><path d="M40 62 L140 62 L152 74 L152 96 L40 96 Z" fill="#000" /><rect x="150" y="70" width="14" height="22" rx="4" fill="#000" /><circle cx="172" cy="81" r="10" fill="#000" /><path d="M58 96 L96 96 L88 152 L52 152 Z" fill="#000" /><path d="M96 98 C102 114 116 114 118 98" fill="none" stroke="#000" stroke-width="6" stroke-linecap="round" stroke-linejoin="round" /><rect x="70" y="54" width="6" height="8" rx="0" fill="#000" /><rect x="84" y="54" width="6" height="8" rx="0" fill="#000" /><rect x="98" y="54" width="6" height="8" rx="0" fill="#000" /><rect x="48" y="72" width="90" height="4" rx="0" fill="#000" opacity=".85"/></g></g>
<g transform="translate(106.0,76.0) scale(1.5)"><path d="M40 62 L140 62 L152 74 L152 96 L40 96 Z" fill="url(#bone)" /><rect x="150" y="70" width="14" height="22" rx="4" fill="url(#bone)" /><circle cx="172" cy="81" r="10" fill="#ff8a3d" /><path d="M58 96 L96 96 L88 152 L52 152 Z" fill="url(#bone)" /><path d="M96 98 C102 114 116 114 118 98" fill="none" stroke="url(#bone)" stroke-width="6" stroke-linecap="round" stroke-linejoin="round" /><rect x="70" y="54" width="6" height="8" rx="0" fill="url(#bone)" /><rect x="84" y="54" width="6" height="8" rx="0" fill="url(#bone)" /><rect x="98" y="54" width="6" height="8" rx="0" fill="url(#bone)" /><rect x="48" y="72" width="90" height="4" rx="0" fill="#ff8a3d" opacity=".85"/></g>
<rect width="512" height="512" fill="url(#shade)" mask="url(#gm)"/>
<rect width="512" height="512" filter="url(#grain)"/>
</g>
<path d="M256 28 A228 228 0 1 1 255.9 28 Z" fill="none" stroke="#f1e9d6" stroke-width="8"/>
<path d="M256 28 A228 228 0 1 1 255.9 28 Z" fill="none" stroke="#ff8a3d" stroke-width="2.5" opacity=".85" transform="translate(256,256) scale(0.92) translate(-256,-256)"/>
<rect x="-4" y="-232" width="8" height="34" fill="#f1e9d6" transform="translate(256,256) rotate(0)"/><rect x="-4" y="-232" width="8" height="34" fill="#f1e9d6" transform="translate(256,256) rotate(90)"/><rect x="-4" y="-232" width="8" height="34" fill="#f1e9d6" transform="translate(256,256) rotate(180)"/><rect x="-4" y="-232" width="8" height="34" fill="#f1e9d6" transform="translate(256,256) rotate(270)"/>
<text x="256" y="84" text-anchor="middle" font-family="'Courier New',Courier,monospace" font-size="17" font-weight="700" letter-spacing="3" fill="#ff8a3d" opacity=".9">WPN·020</text>
<g transform="translate(256,398)">
<rect x="-150.0" y="-24" width="300" height="52" fill="#0a0d10" stroke="#f1e9d6" stroke-width="3"/>
<rect x="-144.0" y="-18" width="288" height="40" fill="none" stroke="#ff8a3d" stroke-width="1.2" opacity=".7"/>
<text x="0" y="10" text-anchor="middle" font-family="Oswald,'Bebas Neue','Roboto Condensed','Arial Narrow',Impact,sans-serif" font-size="26" font-weight="700" letter-spacing="2" fill="#f1e9d6" textLength="270" lengthAdjust="spacingAndGlyphs">PARTICLE BLASTER</text>
</g>
<text x="256" y="450" text-anchor="middle" font-family="'Courier New',Courier,monospace" font-size="13" letter-spacing="4" fill="#b9ae95" opacity=".85">ARMORY</text>
</svg>